<svg xmlns="http://www.w3.org/2000/svg" viewBox="0 0 64 64">
  <defs><linearGradient id="s" x1="0" y1="0" x2="0" y2="1"><stop offset="0" stop-color="#F8CE6B"/><stop offset="1" stop-color="#F09A38"/></linearGradient></defs>
  <rect width="64" height="64" rx="14" fill="#06222A"/>
  <g transform="translate(-3.2,-2.2) scale(1.1)">
    <circle cx="32" cy="28" r="17.5" fill="url(#s)"/>
    <path d="M34.5 45.5 L37.6 50.4 L34 53.4" fill="none" stroke="#B8402F" stroke-width="1.9" stroke-linecap="round" stroke-linejoin="round"/>
    <path d="M29.8 46.5 L28.8 57.5" fill="none" stroke="#C94A38" stroke-width="1.9" stroke-linecap="round"/>
    <path fill="#E8604C" d="M26.0 34.0 C21.6 28.6 22.0 20.8 26.6 16.0 C29.0 13.6 32.8 13.4 34.0 10.8 C34.4 7.9 36.4 6.2 38.6 7.6 C40.4 9.0 40.2 11.6 38.6 12.8 C37.0 14.0 34.0 14.6 31.8 16.8 C28.2 20.4 28.0 26.0 30.8 31.2 C33.5 30.0 36.5 30.5 38.5 32.5 Q43.5 30.5 46.0 26.5 Q45.8 32.0 42.5 34.8 Q46.5 34.5 48.5 33.0 Q45.5 38.5 41.0 39.5 C41.5 43.5 38.0 46.5 33.0 47.0 C27.5 47.5 22.5 44.5 21.8 40.0 C21.4 37.0 23.2 34.8 26.0 34.0 Z"/>
    <path d="M27.5 38.5 Q33 35.5 39 38.8 Q34.5 44.5 28.8 43 Q27 41 27.5 38.5 Z" fill="#C94A38" opacity=".55"/>
    <path d="M34.4 10.4 C32.2 10.9 30.7 12.4 30.3 14.4 C32.3 14.9 34.4 14.2 35.5 12.6 L36.5 11.1 Z" fill="#06222A"/>
    <circle cx="37.4" cy="9.2" r=".8" fill="#06222A"/>
    <path d="M15 57 c 4 -2.5 8 -2.5 12 0 s 8 2.5 12 0 s 8 -2.5 12 0" fill="none" stroke="#2AB3C0" stroke-width="2.4" stroke-linecap="round"/>
  </g>
</svg>
