<svg xmlns="http://www.w3.org/2000/svg" viewBox="0 0 760 500" width="760" height="500" font-family="Inter, Segoe UI, sans-serif">
<defs>
 <linearGradient id="sun" x1="0" y1="0" x2="0" y2="1"><stop offset="0" stop-color="#F8CE6B"/><stop offset="1" stop-color="#F09A38"/></linearGradient>
 <filter id="sh" x="-8%" y="-8%" width="116%" height="120%"><feDropShadow dx="0" dy="10" stdDeviation="18" flood-color="#06222A" flood-opacity="0.16"/></filter>
</defs>
<rect width="760" height="500" fill="#EAF3F2"/>
<!-- ticket card -->
<rect x="40" y="40" width="680" height="420" rx="22" fill="#fff" filter="url(#sh)"/>
<!-- ocean header band -->
<path d="M40 62 Q40 40 62 40 H698 Q720 40 720 62 V150 H40 Z" fill="#06222A"/>
<circle cx="92" cy="95" r="26" fill="url(#sun)"/>
<path d="M78 108 C70 96 72 82 82 74 C88 69 94 68 96 62" fill="none" stroke="#E8604C" stroke-width="4" stroke-linecap="round"/>
<circle cx="96.5" cy="60" r="5.4" fill="#E8604C"/>
<circle cx="98" cy="59" r="1.4" fill="#06222A"/>
<text x="140" y="86" fill="#fff" font-size="15" letter-spacing="3" font-weight="700">STINAPA · BONAIRE</text>
<text x="140" y="120" fill="#7FD3DD" font-size="26" font-weight="700" font-family="Fraunces, Georgia, serif">Nature Tag</text>
<!-- body left text -->
<text x="72" y="205" fill="#0E5D6E" font-size="13" letter-spacing="2" font-weight="700">YOUR DIGITAL ENTRANCE TICKET</text>
<text x="72" y="248" fill="#06222A" font-size="34" font-weight="700" font-family="Fraunces, Georgia, serif">$40</text>
<text x="72" y="278" fill="#4A5B62" font-size="17">One flat fee · all water users</text>
<text x="72" y="312" fill="#4A5B62" font-size="17">Children under 12 free</text>
<g transform="translate(72,344)">
 <rect x="0" y="0" width="12" height="12" rx="2" fill="#2AB3C0"/><text x="22" y="11" fill="#22333A" font-size="16">Valid 1 Jan – 31 Dec</text>
 <rect x="0" y="30" width="12" height="12" rx="2" fill="#2AB3C0"/><text x="22" y="41" fill="#22333A" font-size="16">Emailed as a QR code</text>
 <rect x="0" y="60" width="12" height="12" rx="2" fill="#2AB3C0"/><text x="22" y="71" fill="#22333A" font-size="16">Show it on your phone</text>
</g>
<!-- perforation divider -->
<line x1="430" y1="170" x2="430" y2="430" stroke="#D8E4E3" stroke-width="2" stroke-dasharray="4 7"/>
<!-- QR -->
<g fill="#06222A"><rect x="470.00" y="150.00" width="7.59" height="7.59"/><rect x="477.59" y="150.00" width="7.59" height="7.59"/><rect x="485.17" y="150.00" width="7.59" height="7.59"/><rect x="492.76" y="150.00" width="7.59" height="7.59"/><rect x="500.34" y="150.00" width="7.59" height="7.59"/><rect x="507.93" y="150.00" width="7.59" height="7.59"/><rect x="515.52" y="150.00" width="7.59" height="7.59"/><rect x="530.69" y="150.00" width="7.59" height="7.59"/><rect x="553.45" y="150.00" width="7.59" height="7.59"/><rect x="568.62" y="150.00" width="7.59" height="7.59"/><rect x="576.21" y="150.00" width="7.59" height="7.59"/><rect x="583.79" y="150.00" width="7.59" height="7.59"/><rect x="614.14" y="150.00" width="7.59" height="7.59"/><rect x="621.72" y="150.00" width="7.59" height="7.59"/><rect x="636.90" y="150.00" width="7.59" height="7.59"/><rect x="644.48" y="150.00" width="7.59" height="7.59"/><rect x="652.07" y="150.00" width="7.59" height="7.59"/><rect x="659.66" y="150.00" width="7.59" height="7.59"/><rect x="667.24" y="150.00" width="7.59" height="7.59"/><rect x="674.83" y="150.00" width="7.59" height="7.59"/><rect x="682.41" y="150.00" width="7.59" height="7.59"/><rect x="470.00" y="157.59" width="7.59" height="7.59"/><rect x="515.52" y="157.59" width="7.59" height="7.59"/><rect x="530.69" y="157.59" width="7.59" height="7.59"/><rect x="553.45" y="157.59" width="7.59" height="7.59"/><rect x="568.62" y="157.59" width="7.59" height="7.59"/><rect x="591.38" y="157.59" width="7.59" height="7.59"/><rect x="598.97" y="157.59" width="7.59" height="7.59"/><rect x="606.55" y="157.59" width="7.59" height="7.59"/><rect x="621.72" y="157.59" width="7.59" height="7.59"/><rect x="636.90" y="157.59" width="7.59" height="7.59"/><rect x="682.41" y="157.59" width="7.59" height="7.59"/><rect x="470.00" y="165.17" width="7.59" height="7.59"/><rect x="485.17" y="165.17" width="7.59" height="7.59"/><rect x="492.76" y="165.17" width="7.59" height="7.59"/><rect x="500.34" y="165.17" width="7.59" height="7.59"/><rect x="515.52" y="165.17" width="7.59" height="7.59"/><rect x="545.86" y="165.17" width="7.59" height="7.59"/><rect x="553.45" y="165.17" width="7.59" height="7.59"/><rect x="561.03" y="165.17" width="7.59" height="7.59"/><rect x="591.38" y="165.17" width="7.59" height="7.59"/><rect x="606.55" y="165.17" width="7.59" height="7.59"/><rect x="614.14" y="165.17" width="7.59" height="7.59"/><rect x="621.72" y="165.17" width="7.59" height="7.59"/><rect x="636.90" y="165.17" width="7.59" height="7.59"/><rect x="652.07" y="165.17" width="7.59" height="7.59"/><rect x="659.66" y="165.17" width="7.59" height="7.59"/><rect x="667.24" y="165.17" width="7.59" height="7.59"/><rect x="682.41" y="165.17" width="7.59" height="7.59"/><rect x="470.00" y="172.76" width="7.59" height="7.59"/><rect x="485.17" y="172.76" width="7.59" height="7.59"/><rect x="492.76" y="172.76" width="7.59" height="7.59"/><rect x="500.34" y="172.76" width="7.59" height="7.59"/><rect x="515.52" y="172.76" width="7.59" height="7.59"/><rect x="530.69" y="172.76" width="7.59" height="7.59"/><rect x="538.28" y="172.76" width="7.59" height="7.59"/><rect x="545.86" y="172.76" width="7.59" height="7.59"/><rect x="553.45" y="172.76" width="7.59" height="7.59"/><rect x="576.21" y="172.76" width="7.59" height="7.59"/><rect x="583.79" y="172.76" width="7.59" height="7.59"/><rect x="598.97" y="172.76" width="7.59" height="7.59"/><rect x="621.72" y="172.76" width="7.59" height="7.59"/><rect x="636.90" y="172.76" width="7.59" height="7.59"/><rect x="652.07" y="172.76" width="7.59" height="7.59"/><rect x="659.66" y="172.76" width="7.59" height="7.59"/><rect x="667.24" y="172.76" width="7.59" height="7.59"/><rect x="682.41" y="172.76" width="7.59" height="7.59"/><rect x="470.00" y="180.34" width="7.59" height="7.59"/><rect x="485.17" y="180.34" width="7.59" height="7.59"/><rect x="492.76" y="180.34" width="7.59" height="7.59"/><rect x="500.34" y="180.34" width="7.59" height="7.59"/><rect x="515.52" y="180.34" width="7.59" height="7.59"/><rect x="538.28" y="180.34" width="7.59" height="7.59"/><rect x="561.03" y="180.34" width="7.59" height="7.59"/><rect x="576.21" y="180.34" width="7.59" height="7.59"/><rect x="591.38" y="180.34" width="7.59" height="7.59"/><rect x="598.97" y="180.34" width="7.59" height="7.59"/><rect x="606.55" y="180.34" width="7.59" height="7.59"/><rect x="614.14" y="180.34" width="7.59" height="7.59"/><rect x="636.90" y="180.34" width="7.59" height="7.59"/><rect x="652.07" y="180.34" width="7.59" height="7.59"/><rect x="659.66" y="180.34" width="7.59" height="7.59"/><rect x="667.24" y="180.34" width="7.59" height="7.59"/><rect x="682.41" y="180.34" width="7.59" height="7.59"/><rect x="470.00" y="187.93" width="7.59" height="7.59"/><rect x="515.52" y="187.93" width="7.59" height="7.59"/><rect x="538.28" y="187.93" width="7.59" height="7.59"/><rect x="568.62" y="187.93" width="7.59" height="7.59"/><rect x="583.79" y="187.93" width="7.59" height="7.59"/><rect x="591.38" y="187.93" width="7.59" height="7.59"/><rect x="598.97" y="187.93" width="7.59" height="7.59"/><rect x="614.14" y="187.93" width="7.59" height="7.59"/><rect x="621.72" y="187.93" width="7.59" height="7.59"/><rect x="636.90" y="187.93" width="7.59" height="7.59"/><rect x="682.41" y="187.93" width="7.59" height="7.59"/><rect x="470.00" y="195.52" width="7.59" height="7.59"/><rect x="477.59" y="195.52" width="7.59" height="7.59"/><rect x="485.17" y="195.52" width="7.59" height="7.59"/><rect x="492.76" y="195.52" width="7.59" height="7.59"/><rect x="500.34" y="195.52" width="7.59" height="7.59"/><rect x="507.93" y="195.52" width="7.59" height="7.59"/><rect x="515.52" y="195.52" width="7.59" height="7.59"/><rect x="530.69" y="195.52" width="7.59" height="7.59"/><rect x="545.86" y="195.52" width="7.59" height="7.59"/><rect x="561.03" y="195.52" width="7.59" height="7.59"/><rect x="576.21" y="195.52" width="7.59" height="7.59"/><rect x="591.38" y="195.52" width="7.59" height="7.59"/><rect x="606.55" y="195.52" width="7.59" height="7.59"/><rect x="621.72" y="195.52" width="7.59" height="7.59"/><rect x="636.90" y="195.52" width="7.59" height="7.59"/><rect x="644.48" y="195.52" width="7.59" height="7.59"/><rect x="652.07" y="195.52" width="7.59" height="7.59"/><rect x="659.66" y="195.52" width="7.59" height="7.59"/><rect x="667.24" y="195.52" width="7.59" height="7.59"/><rect x="674.83" y="195.52" width="7.59" height="7.59"/><rect x="682.41" y="195.52" width="7.59" height="7.59"/><rect x="530.69" y="203.10" width="7.59" height="7.59"/><rect x="538.28" y="203.10" width="7.59" height="7.59"/><rect x="553.45" y="203.10" width="7.59" height="7.59"/><rect x="561.03" y="203.10" width="7.59" height="7.59"/><rect x="583.79" y="203.10" width="7.59" height="7.59"/><rect x="591.38" y="203.10" width="7.59" height="7.59"/><rect x="598.97" y="203.10" width="7.59" height="7.59"/><rect x="621.72" y="203.10" width="7.59" height="7.59"/><rect x="470.00" y="210.69" width="7.59" height="7.59"/><rect x="485.17" y="210.69" width="7.59" height="7.59"/><rect x="492.76" y="210.69" width="7.59" height="7.59"/><rect x="507.93" y="210.69" width="7.59" height="7.59"/><rect x="515.52" y="210.69" width="7.59" height="7.59"/><rect x="523.10" y="210.69" width="7.59" height="7.59"/><rect x="538.28" y="210.69" width="7.59" height="7.59"/><rect x="545.86" y="210.69" width="7.59" height="7.59"/><rect x="561.03" y="210.69" width="7.59" height="7.59"/><rect x="568.62" y="210.69" width="7.59" height="7.59"/><rect x="583.79" y="210.69" width="7.59" height="7.59"/><rect x="598.97" y="210.69" width="7.59" height="7.59"/><rect x="606.55" y="210.69" width="7.59" height="7.59"/><rect x="614.14" y="210.69" width="7.59" height="7.59"/><rect x="636.90" y="210.69" width="7.59" height="7.59"/><rect x="659.66" y="210.69" width="7.59" height="7.59"/><rect x="674.83" y="210.69" width="7.59" height="7.59"/><rect x="682.41" y="210.69" width="7.59" height="7.59"/><rect x="470.00" y="218.28" width="7.59" height="7.59"/><rect x="492.76" y="218.28" width="7.59" height="7.59"/><rect x="523.10" y="218.28" width="7.59" height="7.59"/><rect x="530.69" y="218.28" width="7.59" height="7.59"/><rect x="538.28" y="218.28" width="7.59" height="7.59"/><rect x="545.86" y="218.28" width="7.59" height="7.59"/><rect x="553.45" y="218.28" width="7.59" height="7.59"/><rect x="568.62" y="218.28" width="7.59" height="7.59"/><rect x="576.21" y="218.28" width="7.59" height="7.59"/><rect x="583.79" y="218.28" width="7.59" height="7.59"/><rect x="606.55" y="218.28" width="7.59" height="7.59"/><rect x="614.14" y="218.28" width="7.59" height="7.59"/><rect x="621.72" y="218.28" width="7.59" height="7.59"/><rect x="636.90" y="218.28" width="7.59" height="7.59"/><rect x="644.48" y="218.28" width="7.59" height="7.59"/><rect x="652.07" y="218.28" width="7.59" height="7.59"/><rect x="682.41" y="218.28" width="7.59" height="7.59"/><rect x="477.59" y="225.86" width="7.59" height="7.59"/><rect x="485.17" y="225.86" width="7.59" height="7.59"/><rect x="492.76" y="225.86" width="7.59" height="7.59"/><rect x="500.34" y="225.86" width="7.59" height="7.59"/><rect x="507.93" y="225.86" width="7.59" height="7.59"/><rect x="515.52" y="225.86" width="7.59" height="7.59"/><rect x="523.10" y="225.86" width="7.59" height="7.59"/><rect x="530.69" y="225.86" width="7.59" height="7.59"/><rect x="538.28" y="225.86" width="7.59" height="7.59"/><rect x="561.03" y="225.86" width="7.59" height="7.59"/><rect x="568.62" y="225.86" width="7.59" height="7.59"/><rect x="591.38" y="225.86" width="7.59" height="7.59"/><rect x="598.97" y="225.86" width="7.59" height="7.59"/><rect x="606.55" y="225.86" width="7.59" height="7.59"/><rect x="621.72" y="225.86" width="7.59" height="7.59"/><rect x="644.48" y="225.86" width="7.59" height="7.59"/><rect x="652.07" y="225.86" width="7.59" height="7.59"/><rect x="667.24" y="225.86" width="7.59" height="7.59"/><rect x="674.83" y="225.86" width="7.59" height="7.59"/><rect x="470.00" y="233.45" width="7.59" height="7.59"/><rect x="485.17" y="233.45" width="7.59" height="7.59"/><rect x="500.34" y="233.45" width="7.59" height="7.59"/><rect x="523.10" y="233.45" width="7.59" height="7.59"/><rect x="545.86" y="233.45" width="7.59" height="7.59"/><rect x="561.03" y="233.45" width="7.59" height="7.59"/><rect x="591.38" y="233.45" width="7.59" height="7.59"/><rect x="606.55" y="233.45" width="7.59" height="7.59"/><rect x="621.72" y="233.45" width="7.59" height="7.59"/><rect x="629.31" y="233.45" width="7.59" height="7.59"/><rect x="644.48" y="233.45" width="7.59" height="7.59"/><rect x="652.07" y="233.45" width="7.59" height="7.59"/><rect x="682.41" y="233.45" width="7.59" height="7.59"/><rect x="485.17" y="241.03" width="7.59" height="7.59"/><rect x="492.76" y="241.03" width="7.59" height="7.59"/><rect x="500.34" y="241.03" width="7.59" height="7.59"/><rect x="507.93" y="241.03" width="7.59" height="7.59"/><rect x="515.52" y="241.03" width="7.59" height="7.59"/><rect x="545.86" y="241.03" width="7.59" height="7.59"/><rect x="553.45" y="241.03" width="7.59" height="7.59"/><rect x="576.21" y="241.03" width="7.59" height="7.59"/><rect x="583.79" y="241.03" width="7.59" height="7.59"/><rect x="598.97" y="241.03" width="7.59" height="7.59"/><rect x="614.14" y="241.03" width="7.59" height="7.59"/><rect x="659.66" y="241.03" width="7.59" height="7.59"/><rect x="667.24" y="241.03" width="7.59" height="7.59"/><rect x="492.76" y="248.62" width="7.59" height="7.59"/><rect x="507.93" y="248.62" width="7.59" height="7.59"/><rect x="553.45" y="248.62" width="7.59" height="7.59"/><rect x="576.21" y="248.62" width="7.59" height="7.59"/><rect x="591.38" y="248.62" width="7.59" height="7.59"/><rect x="598.97" y="248.62" width="7.59" height="7.59"/><rect x="614.14" y="248.62" width="7.59" height="7.59"/><rect x="629.31" y="248.62" width="7.59" height="7.59"/><rect x="636.90" y="248.62" width="7.59" height="7.59"/><rect x="644.48" y="248.62" width="7.59" height="7.59"/><rect x="667.24" y="248.62" width="7.59" height="7.59"/><rect x="674.83" y="248.62" width="7.59" height="7.59"/><rect x="682.41" y="248.62" width="7.59" height="7.59"/><rect x="500.34" y="256.21" width="7.59" height="7.59"/><rect x="515.52" y="256.21" width="7.59" height="7.59"/><rect x="530.69" y="256.21" width="7.59" height="7.59"/><rect x="538.28" y="256.21" width="7.59" height="7.59"/><rect x="553.45" y="256.21" width="7.59" height="7.59"/><rect x="561.03" y="256.21" width="7.59" height="7.59"/><rect x="568.62" y="256.21" width="7.59" height="7.59"/><rect x="583.79" y="256.21" width="7.59" height="7.59"/><rect x="591.38" y="256.21" width="7.59" height="7.59"/><rect x="598.97" y="256.21" width="7.59" height="7.59"/><rect x="606.55" y="256.21" width="7.59" height="7.59"/><rect x="614.14" y="256.21" width="7.59" height="7.59"/><rect x="621.72" y="256.21" width="7.59" height="7.59"/><rect x="629.31" y="256.21" width="7.59" height="7.59"/><rect x="636.90" y="256.21" width="7.59" height="7.59"/><rect x="644.48" y="256.21" width="7.59" height="7.59"/><rect x="652.07" y="256.21" width="7.59" height="7.59"/><rect x="667.24" y="256.21" width="7.59" height="7.59"/><rect x="674.83" y="256.21" width="7.59" height="7.59"/><rect x="682.41" y="256.21" width="7.59" height="7.59"/><rect x="477.59" y="263.79" width="7.59" height="7.59"/><rect x="485.17" y="263.79" width="7.59" height="7.59"/><rect x="492.76" y="263.79" width="7.59" height="7.59"/><rect x="500.34" y="263.79" width="7.59" height="7.59"/><rect x="523.10" y="263.79" width="7.59" height="7.59"/><rect x="538.28" y="263.79" width="7.59" height="7.59"/><rect x="545.86" y="263.79" width="7.59" height="7.59"/><rect x="553.45" y="263.79" width="7.59" height="7.59"/><rect x="561.03" y="263.79" width="7.59" height="7.59"/><rect x="576.21" y="263.79" width="7.59" height="7.59"/><rect x="591.38" y="263.79" width="7.59" height="7.59"/><rect x="606.55" y="263.79" width="7.59" height="7.59"/><rect x="629.31" y="263.79" width="7.59" height="7.59"/><rect x="644.48" y="263.79" width="7.59" height="7.59"/><rect x="652.07" y="263.79" width="7.59" height="7.59"/><rect x="674.83" y="263.79" width="7.59" height="7.59"/><rect x="485.17" y="271.38" width="7.59" height="7.59"/><rect x="500.34" y="271.38" width="7.59" height="7.59"/><rect x="515.52" y="271.38" width="7.59" height="7.59"/><rect x="523.10" y="271.38" width="7.59" height="7.59"/><rect x="530.69" y="271.38" width="7.59" height="7.59"/><rect x="538.28" y="271.38" width="7.59" height="7.59"/><rect x="553.45" y="271.38" width="7.59" height="7.59"/><rect x="561.03" y="271.38" width="7.59" height="7.59"/><rect x="576.21" y="271.38" width="7.59" height="7.59"/><rect x="583.79" y="271.38" width="7.59" height="7.59"/><rect x="606.55" y="271.38" width="7.59" height="7.59"/><rect x="621.72" y="271.38" width="7.59" height="7.59"/><rect x="629.31" y="271.38" width="7.59" height="7.59"/><rect x="652.07" y="271.38" width="7.59" height="7.59"/><rect x="659.66" y="271.38" width="7.59" height="7.59"/><rect x="674.83" y="271.38" width="7.59" height="7.59"/><rect x="477.59" y="278.97" width="7.59" height="7.59"/><rect x="485.17" y="278.97" width="7.59" height="7.59"/><rect x="492.76" y="278.97" width="7.59" height="7.59"/><rect x="500.34" y="278.97" width="7.59" height="7.59"/><rect x="523.10" y="278.97" width="7.59" height="7.59"/><rect x="538.28" y="278.97" width="7.59" height="7.59"/><rect x="576.21" y="278.97" width="7.59" height="7.59"/><rect x="591.38" y="278.97" width="7.59" height="7.59"/><rect x="621.72" y="278.97" width="7.59" height="7.59"/><rect x="644.48" y="278.97" width="7.59" height="7.59"/><rect x="659.66" y="278.97" width="7.59" height="7.59"/><rect x="667.24" y="278.97" width="7.59" height="7.59"/><rect x="674.83" y="278.97" width="7.59" height="7.59"/><rect x="470.00" y="286.55" width="7.59" height="7.59"/><rect x="485.17" y="286.55" width="7.59" height="7.59"/><rect x="500.34" y="286.55" width="7.59" height="7.59"/><rect x="515.52" y="286.55" width="7.59" height="7.59"/><rect x="530.69" y="286.55" width="7.59" height="7.59"/><rect x="538.28" y="286.55" width="7.59" height="7.59"/><rect x="545.86" y="286.55" width="7.59" height="7.59"/><rect x="553.45" y="286.55" width="7.59" height="7.59"/><rect x="568.62" y="286.55" width="7.59" height="7.59"/><rect x="576.21" y="286.55" width="7.59" height="7.59"/><rect x="583.79" y="286.55" width="7.59" height="7.59"/><rect x="591.38" y="286.55" width="7.59" height="7.59"/><rect x="629.31" y="286.55" width="7.59" height="7.59"/><rect x="636.90" y="286.55" width="7.59" height="7.59"/><rect x="644.48" y="286.55" width="7.59" height="7.59"/><rect x="667.24" y="286.55" width="7.59" height="7.59"/><rect x="485.17" y="294.14" width="7.59" height="7.59"/><rect x="492.76" y="294.14" width="7.59" height="7.59"/><rect x="500.34" y="294.14" width="7.59" height="7.59"/><rect x="507.93" y="294.14" width="7.59" height="7.59"/><rect x="530.69" y="294.14" width="7.59" height="7.59"/><rect x="538.28" y="294.14" width="7.59" height="7.59"/><rect x="545.86" y="294.14" width="7.59" height="7.59"/><rect x="561.03" y="294.14" width="7.59" height="7.59"/><rect x="568.62" y="294.14" width="7.59" height="7.59"/><rect x="576.21" y="294.14" width="7.59" height="7.59"/><rect x="583.79" y="294.14" width="7.59" height="7.59"/><rect x="591.38" y="294.14" width="7.59" height="7.59"/><rect x="598.97" y="294.14" width="7.59" height="7.59"/><rect x="606.55" y="294.14" width="7.59" height="7.59"/><rect x="621.72" y="294.14" width="7.59" height="7.59"/><rect x="629.31" y="294.14" width="7.59" height="7.59"/><rect x="667.24" y="294.14" width="7.59" height="7.59"/><rect x="477.59" y="301.72" width="7.59" height="7.59"/><rect x="492.76" y="301.72" width="7.59" height="7.59"/><rect x="515.52" y="301.72" width="7.59" height="7.59"/><rect x="523.10" y="301.72" width="7.59" height="7.59"/><rect x="530.69" y="301.72" width="7.59" height="7.59"/><rect x="545.86" y="301.72" width="7.59" height="7.59"/><rect x="568.62" y="301.72" width="7.59" height="7.59"/><rect x="576.21" y="301.72" width="7.59" height="7.59"/><rect x="591.38" y="301.72" width="7.59" height="7.59"/><rect x="598.97" y="301.72" width="7.59" height="7.59"/><rect x="606.55" y="301.72" width="7.59" height="7.59"/><rect x="614.14" y="301.72" width="7.59" height="7.59"/><rect x="621.72" y="301.72" width="7.59" height="7.59"/><rect x="629.31" y="301.72" width="7.59" height="7.59"/><rect x="636.90" y="301.72" width="7.59" height="7.59"/><rect x="644.48" y="301.72" width="7.59" height="7.59"/><rect x="652.07" y="301.72" width="7.59" height="7.59"/><rect x="659.66" y="301.72" width="7.59" height="7.59"/><rect x="667.24" y="301.72" width="7.59" height="7.59"/><rect x="530.69" y="309.31" width="7.59" height="7.59"/><rect x="545.86" y="309.31" width="7.59" height="7.59"/><rect x="553.45" y="309.31" width="7.59" height="7.59"/><rect x="561.03" y="309.31" width="7.59" height="7.59"/><rect x="591.38" y="309.31" width="7.59" height="7.59"/><rect x="606.55" y="309.31" width="7.59" height="7.59"/><rect x="614.14" y="309.31" width="7.59" height="7.59"/><rect x="621.72" y="309.31" width="7.59" height="7.59"/><rect x="652.07" y="309.31" width="7.59" height="7.59"/><rect x="659.66" y="309.31" width="7.59" height="7.59"/><rect x="667.24" y="309.31" width="7.59" height="7.59"/><rect x="674.83" y="309.31" width="7.59" height="7.59"/><rect x="682.41" y="309.31" width="7.59" height="7.59"/><rect x="470.00" y="316.90" width="7.59" height="7.59"/><rect x="477.59" y="316.90" width="7.59" height="7.59"/><rect x="485.17" y="316.90" width="7.59" height="7.59"/><rect x="492.76" y="316.90" width="7.59" height="7.59"/><rect x="500.34" y="316.90" width="7.59" height="7.59"/><rect x="507.93" y="316.90" width="7.59" height="7.59"/><rect x="515.52" y="316.90" width="7.59" height="7.59"/><rect x="530.69" y="316.90" width="7.59" height="7.59"/><rect x="545.86" y="316.90" width="7.59" height="7.59"/><rect x="553.45" y="316.90" width="7.59" height="7.59"/><rect x="561.03" y="316.90" width="7.59" height="7.59"/><rect x="576.21" y="316.90" width="7.59" height="7.59"/><rect x="598.97" y="316.90" width="7.59" height="7.59"/><rect x="606.55" y="316.90" width="7.59" height="7.59"/><rect x="614.14" y="316.90" width="7.59" height="7.59"/><rect x="621.72" y="316.90" width="7.59" height="7.59"/><rect x="636.90" y="316.90" width="7.59" height="7.59"/><rect x="652.07" y="316.90" width="7.59" height="7.59"/><rect x="659.66" y="316.90" width="7.59" height="7.59"/><rect x="674.83" y="316.90" width="7.59" height="7.59"/><rect x="470.00" y="324.48" width="7.59" height="7.59"/><rect x="515.52" y="324.48" width="7.59" height="7.59"/><rect x="530.69" y="324.48" width="7.59" height="7.59"/><rect x="561.03" y="324.48" width="7.59" height="7.59"/><rect x="568.62" y="324.48" width="7.59" height="7.59"/><rect x="576.21" y="324.48" width="7.59" height="7.59"/><rect x="583.79" y="324.48" width="7.59" height="7.59"/><rect x="591.38" y="324.48" width="7.59" height="7.59"/><rect x="606.55" y="324.48" width="7.59" height="7.59"/><rect x="621.72" y="324.48" width="7.59" height="7.59"/><rect x="652.07" y="324.48" width="7.59" height="7.59"/><rect x="659.66" y="324.48" width="7.59" height="7.59"/><rect x="682.41" y="324.48" width="7.59" height="7.59"/><rect x="470.00" y="332.07" width="7.59" height="7.59"/><rect x="485.17" y="332.07" width="7.59" height="7.59"/><rect x="492.76" y="332.07" width="7.59" height="7.59"/><rect x="500.34" y="332.07" width="7.59" height="7.59"/><rect x="515.52" y="332.07" width="7.59" height="7.59"/><rect x="538.28" y="332.07" width="7.59" height="7.59"/><rect x="545.86" y="332.07" width="7.59" height="7.59"/><rect x="583.79" y="332.07" width="7.59" height="7.59"/><rect x="591.38" y="332.07" width="7.59" height="7.59"/><rect x="598.97" y="332.07" width="7.59" height="7.59"/><rect x="606.55" y="332.07" width="7.59" height="7.59"/><rect x="621.72" y="332.07" width="7.59" height="7.59"/><rect x="629.31" y="332.07" width="7.59" height="7.59"/><rect x="636.90" y="332.07" width="7.59" height="7.59"/><rect x="644.48" y="332.07" width="7.59" height="7.59"/><rect x="652.07" y="332.07" width="7.59" height="7.59"/><rect x="667.24" y="332.07" width="7.59" height="7.59"/><rect x="674.83" y="332.07" width="7.59" height="7.59"/><rect x="470.00" y="339.66" width="7.59" height="7.59"/><rect x="485.17" y="339.66" width="7.59" height="7.59"/><rect x="492.76" y="339.66" width="7.59" height="7.59"/><rect x="500.34" y="339.66" width="7.59" height="7.59"/><rect x="515.52" y="339.66" width="7.59" height="7.59"/><rect x="530.69" y="339.66" width="7.59" height="7.59"/><rect x="538.28" y="339.66" width="7.59" height="7.59"/><rect x="545.86" y="339.66" width="7.59" height="7.59"/><rect x="583.79" y="339.66" width="7.59" height="7.59"/><rect x="591.38" y="339.66" width="7.59" height="7.59"/><rect x="614.14" y="339.66" width="7.59" height="7.59"/><rect x="621.72" y="339.66" width="7.59" height="7.59"/><rect x="629.31" y="339.66" width="7.59" height="7.59"/><rect x="652.07" y="339.66" width="7.59" height="7.59"/><rect x="659.66" y="339.66" width="7.59" height="7.59"/><rect x="682.41" y="339.66" width="7.59" height="7.59"/><rect x="470.00" y="347.24" width="7.59" height="7.59"/><rect x="485.17" y="347.24" width="7.59" height="7.59"/><rect x="492.76" y="347.24" width="7.59" height="7.59"/><rect x="500.34" y="347.24" width="7.59" height="7.59"/><rect x="515.52" y="347.24" width="7.59" height="7.59"/><rect x="530.69" y="347.24" width="7.59" height="7.59"/><rect x="598.97" y="347.24" width="7.59" height="7.59"/><rect x="606.55" y="347.24" width="7.59" height="7.59"/><rect x="614.14" y="347.24" width="7.59" height="7.59"/><rect x="644.48" y="347.24" width="7.59" height="7.59"/><rect x="667.24" y="347.24" width="7.59" height="7.59"/><rect x="682.41" y="347.24" width="7.59" height="7.59"/><rect x="470.00" y="354.83" width="7.59" height="7.59"/><rect x="515.52" y="354.83" width="7.59" height="7.59"/><rect x="538.28" y="354.83" width="7.59" height="7.59"/><rect x="545.86" y="354.83" width="7.59" height="7.59"/><rect x="568.62" y="354.83" width="7.59" height="7.59"/><rect x="591.38" y="354.83" width="7.59" height="7.59"/><rect x="606.55" y="354.83" width="7.59" height="7.59"/><rect x="621.72" y="354.83" width="7.59" height="7.59"/><rect x="636.90" y="354.83" width="7.59" height="7.59"/><rect x="644.48" y="354.83" width="7.59" height="7.59"/><rect x="659.66" y="354.83" width="7.59" height="7.59"/><rect x="674.83" y="354.83" width="7.59" height="7.59"/><rect x="470.00" y="362.41" width="7.59" height="7.59"/><rect x="477.59" y="362.41" width="7.59" height="7.59"/><rect x="485.17" y="362.41" width="7.59" height="7.59"/><rect x="492.76" y="362.41" width="7.59" height="7.59"/><rect x="500.34" y="362.41" width="7.59" height="7.59"/><rect x="507.93" y="362.41" width="7.59" height="7.59"/><rect x="515.52" y="362.41" width="7.59" height="7.59"/><rect x="530.69" y="362.41" width="7.59" height="7.59"/><rect x="538.28" y="362.41" width="7.59" height="7.59"/><rect x="553.45" y="362.41" width="7.59" height="7.59"/><rect x="561.03" y="362.41" width="7.59" height="7.59"/><rect x="568.62" y="362.41" width="7.59" height="7.59"/><rect x="576.21" y="362.41" width="7.59" height="7.59"/><rect x="583.79" y="362.41" width="7.59" height="7.59"/><rect x="606.55" y="362.41" width="7.59" height="7.59"/><rect x="614.14" y="362.41" width="7.59" height="7.59"/><rect x="621.72" y="362.41" width="7.59" height="7.59"/><rect x="636.90" y="362.41" width="7.59" height="7.59"/><rect x="659.66" y="362.41" width="7.59" height="7.59"/><rect x="674.83" y="362.41" width="7.59" height="7.59"/></g>
<text x="580" y="405" fill="#7c8a90" font-size="12.5" text-anchor="middle">scan → stinapanaturefee.org</text>
</svg>