<svg xmlns="http://www.w3.org/2000/svg" viewBox="0 0 1002 252" width="1002" height="252"><defs>
<linearGradient id="coral" x1="0" y1="0" x2="0.85" y2="1"><stop offset="0" stop-color="#FFA179"/><stop offset="1" stop-color="#ED4C31"/></linearGradient>
<linearGradient id="gold" x1="0" y1="0" x2="0" y2="1"><stop offset="0" stop-color="#FFC94D"/><stop offset="1" stop-color="#F68D3B"/></linearGradient></defs>
<g transform="translate(6,6) scale(0.94)"><g id="flamingo">
  <g fill="url(#gold)"><path d="M116 122 L79.0 199.6 L94.5 205.3 Z"/><path d="M116 122 L51.7 179.1 L63.8 190.4 Z"/><path d="M116 122 L34.6 149.7 L41.4 164.7 Z"/><path d="M116 122 L30.2 115.9 L30.6 132.4 Z"/><path d="M116 122 L39.3 83.1 L33.3 98.4 Z"/><path d="M116 122 L60.5 56.3 L49.0 68.1 Z"/><path d="M116 122 L90.3 39.9 L75.2 46.3 Z"/><path d="M116 122 L124.2 36.4 L107.8 36.4 Z"/><path d="M116 122 L156.8 46.3 L141.7 39.9 Z"/><path d="M116 122 L183.0 68.1 L171.5 56.3 Z"/><path d="M116 122 L198.7 98.4 L192.7 83.1 Z"/><path d="M116 122 L201.4 132.4 L201.8 115.9 Z"/><path d="M116 122 L190.6 164.7 L197.4 149.7 Z"/><path d="M116 122 L168.2 190.4 L180.3 179.1 Z"/><path d="M116 122 L137.5 205.3 L153.0 199.6 Z"/></g>
  <circle cx="116" cy="122" r="46" fill="url(#gold)"/>
  <g stroke="#FFFFFF" stroke-linecap="round" stroke-linejoin="round" fill="#FFFFFF">
    <path d="M122.3 33.5 L120.9 34.9 L119.5 36.3 L118.1 37.7 L116.7 39.1 L115.3 40.5 L113.9 42.0 L112.5 43.4 L111.1 44.9 L109.7 46.4 L108.3 48.0 L107.0 49.5 L105.7 51.1 L104.4 52.7 L103.1 54.4 L101.8 56.1 L100.6 57.8 L99.4 59.5 L98.3 61.3 L97.2 63.1 L96.1 65.0 L95.1 66.9 L94.1 68.8 L93.2 70.8 L92.4 72.8 L91.6 74.9 L90.8 77.0 L90.2 79.2 L89.6 81.4 L89.1 83.7 L88.7 86.0 L88.4 88.3 L88.1 90.7 L88.0 93.2 L88.0 95.6 L88.1 98.1 L88.3 100.7 L88.6 103.2 L89.0 105.8 L89.5 108.5 L90.2 111.1 L91.0 113.8 L91.9 116.4 L92.9 119.1 L94.0 121.8 L95.3 124.6 L96.7 127.3 L98.2 130.0 L99.7 132.6 L124.3 115.4 L122.7 113.5 L121.3 111.8 L120.0 110.1 L118.8 108.5 L117.8 106.9 L116.8 105.3 L115.9 103.7 L115.1 102.2 L114.3 100.7 L113.7 99.2 L113.1 97.7 L112.6 96.3 L112.1 94.8 L111.7 93.4 L111.4 91.9 L111.2 90.5 L111.0 89.0 L110.9 87.6 L110.8 86.1 L110.8 84.6 L110.9 83.2 L111.0 81.7 L111.2 80.2 L111.4 78.7 L111.7 77.2 L112.0 75.6 L112.5 74.1 L112.9 72.6 L113.5 71.0 L114.0 69.5 L114.7 67.9 L115.4 66.4 L116.1 64.8 L116.9 63.3 L117.7 61.7 L118.6 60.2 L119.5 58.7 L120.5 57.1 L121.5 55.6 L122.5 54.1 L123.6 52.6 L124.6 51.1 L125.8 49.6 L126.9 48.2 L128.1 46.7 L129.3 45.3 L130.5 43.9 L131.7 42.5 Z" stroke-width="9"/><circle cx="126" cy="36" r="22"/>
    <path d="M100 118 C120 108 148 116 158 136 C166 150 164 168 152 180
C142 190 126 195 112 191 C98 196 82 198 66 195 C73 188 80 181 86 174
C70 181 50 181 34 173 C50 167 63 159 70 151 C55 149 40 141 32 129
C50 127 68 127 82 128 C88 124 94 120 100 118 Z" stroke-width="9"/><path d="M133 30 C145 27 156 31 161 40 C163 44 162 49 158 51 C150 53 141 50 135 44 C132 40 131 34 133 30 Z" stroke-width="7"/>
    <path d="M118 190 L116 218 L122 246" stroke-width="10" fill="none"/></g>
  <path d="M118 190 L116 218 L122 246" stroke="#E8492E" stroke-width="4.2" fill="none" stroke-linecap="round" stroke-linejoin="round"/>
  <path d="M122 246 h14" stroke="#E8492E" stroke-width="4.2" stroke-linecap="round"/>
  <path d="M133 30 C145 27 156 31 161 40 C163 44 162 49 158 51 C150 53 141 50 135 44 C132 40 131 34 133 30 Z" fill="url(#coral)"/>
  <path d="M152 34 C158 35 163 40 163 45 C163 49 161 52 157 52 C150 53 143 50 139 47 C144 43 148 38 152 34 Z" fill="#1B2A4A"/>
  <circle cx="126" cy="36" r="15" fill="url(#coral)"/>
  <path d="M122.3 33.5 L120.9 34.9 L119.5 36.3 L118.1 37.7 L116.7 39.1 L115.3 40.5 L113.9 42.0 L112.5 43.4 L111.1 44.9 L109.7 46.4 L108.3 48.0 L107.0 49.5 L105.7 51.1 L104.4 52.7 L103.1 54.4 L101.8 56.1 L100.6 57.8 L99.4 59.5 L98.3 61.3 L97.2 63.1 L96.1 65.0 L95.1 66.9 L94.1 68.8 L93.2 70.8 L92.4 72.8 L91.6 74.9 L90.8 77.0 L90.2 79.2 L89.6 81.4 L89.1 83.7 L88.7 86.0 L88.4 88.3 L88.1 90.7 L88.0 93.2 L88.0 95.6 L88.1 98.1 L88.3 100.7 L88.6 103.2 L89.0 105.8 L89.5 108.5 L90.2 111.1 L91.0 113.8 L91.9 116.4 L92.9 119.1 L94.0 121.8 L95.3 124.6 L96.7 127.3 L98.2 130.0 L99.7 132.6 L124.3 115.4 L122.7 113.5 L121.3 111.8 L120.0 110.1 L118.8 108.5 L117.8 106.9 L116.8 105.3 L115.9 103.7 L115.1 102.2 L114.3 100.7 L113.7 99.2 L113.1 97.7 L112.6 96.3 L112.1 94.8 L111.7 93.4 L111.4 91.9 L111.2 90.5 L111.0 89.0 L110.9 87.6 L110.8 86.1 L110.8 84.6 L110.9 83.2 L111.0 81.7 L111.2 80.2 L111.4 78.7 L111.7 77.2 L112.0 75.6 L112.5 74.1 L112.9 72.6 L113.5 71.0 L114.0 69.5 L114.7 67.9 L115.4 66.4 L116.1 64.8 L116.9 63.3 L117.7 61.7 L118.6 60.2 L119.5 58.7 L120.5 57.1 L121.5 55.6 L122.5 54.1 L123.6 52.6 L124.6 51.1 L125.8 49.6 L126.9 48.2 L128.1 46.7 L129.3 45.3 L130.5 43.9 L131.7 42.5 Z" fill="url(#coral)"/>
  <path d="M100 118 C120 108 148 116 158 136 C166 150 164 168 152 180
C142 190 126 195 112 191 C98 196 82 198 66 195 C73 188 80 181 86 174
C70 181 50 181 34 173 C50 167 63 159 70 151 C55 149 40 141 32 129
C50 127 68 127 82 128 C88 124 94 120 100 118 Z" fill="url(#coral)"/>
  <path d="M106 130 C126 120 148 128 154 148 C142 136 122 136 106 142 Z" fill="#D93A24" opacity="0.35"/>
  <circle cx="130" cy="33" r="2.6" fill="#1B2A4A"/>
</g></g>
<g transform="translate(223.35,151.3425)"><path d="M66.81 -67.00 L42.24 -0.00 L25.92 -0.00 L1.35 -67.00 L15.75 -67.00 L34.17 -13.72 L52.52 -67.00 L66.81 -67.00 Z M81.70 -59.52 Q78.14 -59.52 75.79 -61.77 Q73.45 -64.03 73.45 -67.39 Q73.45 -70.75 75.79 -73.00 Q78.14 -75.27 81.70 -75.27 Q85.25 -75.27 87.59 -73.00 Q89.95 -70.75 89.95 -67.39 Q89.95 -64.03 87.59 -61.77 Q85.25 -59.52 81.70 -59.52 Z M88.33 -53.19 L88.33 -0.00 L74.89 -0.00 L74.89 -53.19 L88.33 -53.19 Z M121.91 0.87 Q115.39 0.87 110.20 -1.48 Q105.02 -3.84 101.99 -7.88 Q98.98 -11.91 98.69 -16.80 L112.22 -16.80 Q112.61 -13.72 115.25 -11.70 Q117.89 -9.69 121.82 -9.69 Q125.66 -9.69 127.82 -11.22 Q129.98 -12.76 129.98 -15.16 Q129.98 -17.76 127.34 -19.05 Q124.70 -20.36 118.94 -21.88 Q112.99 -23.32 109.19 -24.86 Q105.41 -26.40 102.67 -29.56 Q99.94 -32.73 99.94 -38.12 Q99.94 -42.52 102.47 -46.17 Q105.02 -49.83 109.78 -51.93 Q114.53 -54.04 120.95 -54.04 Q130.46 -54.04 136.12 -49.29 Q141.79 -44.55 142.37 -36.48 L129.50 -36.48 Q129.22 -39.64 126.86 -41.52 Q124.51 -43.39 120.58 -43.39 Q116.93 -43.39 114.95 -42.05 Q112.99 -40.71 112.99 -38.31 Q112.99 -35.61 115.67 -34.21 Q118.37 -32.84 124.03 -31.39 Q129.79 -29.95 133.52 -28.41 Q137.27 -26.88 140.00 -23.65 Q142.75 -20.45 142.85 -15.16 Q142.85 -10.56 140.30 -6.92 Q137.75 -3.27 133.00 -1.20 Q128.26 0.87 121.91 0.87 Z M160.70 -59.52 Q157.15 -59.52 154.79 -61.77 Q152.45 -64.03 152.45 -67.39 Q152.45 -70.75 154.79 -73.00 Q157.15 -75.27 160.70 -75.27 Q164.26 -75.27 166.60 -73.00 Q168.95 -70.75 168.95 -67.39 Q168.95 -64.03 166.60 -61.77 Q164.26 -59.52 160.70 -59.52 Z M167.33 -53.19 L167.33 -0.00 L153.89 -0.00 L153.89 -53.19 L167.33 -53.19 Z M196.23 -42.15 L196.23 -16.41 Q196.23 -13.72 197.52 -12.53 Q198.82 -11.32 201.88 -11.32 L208.12 -11.32 L208.12 -0.00 L199.68 -0.00 Q182.68 -0.00 182.68 -16.52 L182.68 -42.15 L176.35 -42.15 L176.35 -53.19 L182.68 -53.19 L182.68 -66.33 L196.23 -66.33 L196.23 -53.19 L208.12 -53.19 L208.12 -42.15 L196.23 -42.15 Z M224.64 -59.52 Q221.08 -59.52 218.73 -61.77 Q216.39 -64.03 216.39 -67.39 Q216.39 -70.75 218.73 -73.00 Q221.08 -75.27 224.64 -75.27 Q228.19 -75.27 230.53 -73.00 Q232.89 -70.75 232.89 -67.39 Q232.89 -64.03 230.53 -61.77 Q228.19 -59.52 224.64 -59.52 Z M231.27 -53.19 L231.27 -0.00 L217.83 -0.00 L217.83 -53.19 L231.27 -53.19 Z M273.98 -53.95 Q283.49 -53.95 289.34 -47.95 Q295.20 -41.95 295.20 -31.20 L295.20 -0.00 L281.76 -0.00 L281.76 -29.37 Q281.76 -35.71 278.58 -39.12 Q275.42 -42.52 269.96 -42.52 Q264.38 -42.52 261.17 -39.12 Q257.96 -35.71 257.96 -29.37 L257.96 -0.00 L244.52 -0.00 L244.52 -53.19 L257.96 -53.19 L257.96 -46.56 Q260.64 -50.01 264.81 -51.98 Q269.00 -53.95 273.98 -53.95 Z M328.79 -54.04 Q334.75 -54.04 339.26 -51.69 Q343.78 -49.35 346.37 -45.60 L346.37 -53.19 L359.90 -53.19 L359.90 0.39 Q359.90 7.77 356.92 13.57 Q353.95 19.39 347.99 22.80 Q342.05 26.20 333.59 26.20 Q322.27 26.20 315.02 20.93 Q307.78 15.64 306.82 6.52 L320.15 6.52 Q321.22 10.17 324.71 12.33 Q328.22 14.49 333.22 14.49 Q339.07 14.49 342.71 10.98 Q346.37 7.48 346.37 0.39 L346.37 -7.88 Q343.78 -4.12 339.22 -1.62 Q334.66 0.87 328.79 0.87 Q322.07 0.87 316.51 -2.58 Q310.94 -6.04 307.72 -12.33 Q304.51 -18.63 304.51 -26.79 Q304.51 -34.84 307.72 -41.09 Q310.94 -47.32 316.46 -50.68 Q321.98 -54.04 328.79 -54.04 Z M346.37 -26.59 Q346.37 -31.48 344.45 -34.98 Q342.53 -38.49 339.26 -40.37 Q335.99 -42.24 332.26 -42.24 Q328.51 -42.24 325.34 -40.41 Q322.18 -38.59 320.20 -35.09 Q318.23 -31.59 318.23 -26.79 Q318.23 -21.99 320.20 -18.39 Q322.18 -14.79 325.39 -12.87 Q328.61 -10.95 332.26 -10.95 Q335.99 -10.95 339.26 -12.81 Q342.53 -14.68 344.45 -18.18 Q346.37 -21.69 346.37 -26.59 Z" fill="#2C7A7A"/></g>
<g transform="translate(590.9489208984374,151.3425)"><path d="M46.75 -34.56 Q52.60 -33.31 56.16 -28.75 Q59.71 -24.20 59.71 -18.33 Q59.71 -9.88 53.80 -4.93 Q47.91 -0.00 37.35 -0.00 L5.96 -0.00 L5.96 -67.39 L36.28 -67.39 Q46.56 -67.39 52.36 -62.68 Q58.17 -57.99 58.17 -49.92 Q58.17 -43.96 55.05 -40.02 Q51.93 -36.09 46.75 -34.56 Z M22.36 -40.12 L33.12 -40.12 Q37.16 -40.12 39.31 -41.89 Q41.48 -43.68 41.48 -47.13 Q41.48 -50.59 39.31 -52.41 Q37.16 -54.24 33.12 -54.24 L22.36 -54.24 L22.36 -40.12 Z M34.47 -13.24 Q38.59 -13.24 40.84 -15.12 Q43.11 -17.00 43.11 -20.55 Q43.11 -24.09 40.75 -26.10 Q38.40 -28.12 34.27 -28.12 L22.36 -28.12 L22.36 -13.24 L34.47 -13.24 Z M93.59 0.77 Q85.73 0.77 79.43 -2.59 Q73.15 -5.96 69.55 -12.20 Q65.95 -18.43 65.95 -26.79 Q65.95 -35.04 69.59 -41.32 Q73.25 -47.61 79.58 -50.97 Q85.91 -54.33 93.79 -54.33 Q101.66 -54.33 107.99 -50.97 Q114.34 -47.61 117.98 -41.32 Q121.63 -35.04 121.63 -26.79 Q121.63 -18.52 117.92 -12.24 Q114.23 -5.96 107.84 -2.59 Q101.47 0.77 93.59 0.77 Z M93.59 -13.44 Q98.30 -13.44 101.62 -16.89 Q104.93 -20.36 104.93 -26.79 Q104.93 -33.21 101.71 -36.66 Q98.50 -40.12 93.79 -40.12 Q88.99 -40.12 85.82 -36.72 Q82.66 -33.31 82.66 -26.79 Q82.66 -20.36 85.78 -16.89 Q88.90 -13.44 93.59 -13.44 Z M163.01 -54.15 Q172.42 -54.15 178.03 -48.05 Q183.65 -41.95 183.65 -31.29 L183.65 -0.00 L167.33 -0.00 L167.33 -29.08 Q167.33 -34.47 164.54 -37.44 Q161.77 -40.41 157.06 -40.41 Q152.35 -40.41 149.56 -37.44 Q146.78 -34.47 146.78 -29.08 L146.78 -0.00 L130.37 -0.00 L130.37 -53.56 L146.78 -53.56 L146.78 -46.47 Q149.29 -50.01 153.50 -52.08 Q157.73 -54.15 163.01 -54.15 Z M191.80 -26.88 Q191.80 -35.13 194.92 -41.37 Q198.04 -47.61 203.41 -50.97 Q208.80 -54.33 215.43 -54.33 Q221.08 -54.33 225.36 -52.02 Q229.63 -49.73 231.93 -45.99 L231.93 -53.56 L248.35 -53.56 L248.35 -0.00 L231.93 -0.00 L231.93 -7.59 Q229.53 -3.84 225.25 -1.53 Q220.99 0.77 215.32 0.77 Q208.80 0.77 203.41 -2.64 Q198.04 -6.04 194.92 -12.33 Q191.80 -18.63 191.80 -26.88 Z M231.93 -26.79 Q231.93 -32.92 228.52 -36.48 Q225.12 -40.03 220.23 -40.03 Q215.32 -40.03 211.92 -36.52 Q208.51 -33.03 208.51 -26.88 Q208.51 -20.73 211.92 -17.13 Q215.32 -13.53 220.23 -13.53 Q225.12 -13.53 228.52 -17.09 Q231.93 -20.64 231.93 -26.79 Z M268.51 -59.13 Q264.19 -59.13 261.44 -61.68 Q258.71 -64.23 258.71 -67.97 Q258.71 -71.80 261.44 -74.34 Q264.19 -76.89 268.51 -76.89 Q272.74 -76.89 275.47 -74.34 Q278.21 -71.80 278.21 -67.97 Q278.21 -64.23 275.47 -61.68 Q272.74 -59.13 268.51 -59.13 Z M276.67 -53.56 L276.67 -0.00 L260.26 -0.00 L260.26 -53.56 L276.67 -53.56 Z M304.99 -44.64 Q307.87 -49.05 312.19 -51.60 Q316.51 -54.15 321.79 -54.15 L321.79 -36.77 L317.27 -36.77 Q311.14 -36.77 308.06 -34.12 Q304.99 -31.48 304.99 -24.87 L304.99 -0.00 L288.58 -0.00 L288.58 -53.56 L304.99 -53.56 L304.99 -44.64 Z M380.16 -27.64 Q380.16 -25.35 379.87 -22.84 L342.72 -22.84 Q343.11 -17.85 345.93 -15.21 Q348.76 -12.57 352.90 -12.57 Q359.04 -12.57 361.44 -17.76 L378.91 -17.76 Q377.56 -12.48 374.05 -8.25 Q370.56 -4.04 365.28 -1.64 Q360.00 0.77 353.47 0.77 Q345.60 0.77 339.45 -2.59 Q333.31 -5.96 329.85 -12.20 Q326.40 -18.43 326.40 -26.79 Q326.40 -35.13 329.80 -41.37 Q333.22 -47.61 339.36 -50.97 Q345.51 -54.33 353.47 -54.33 Q361.24 -54.33 367.29 -51.06 Q373.35 -47.80 376.75 -41.76 Q380.16 -35.71 380.16 -27.64 Z M363.36 -31.96 Q363.36 -36.20 360.48 -38.68 Q357.60 -41.19 353.28 -41.19 Q349.15 -41.19 346.32 -38.79 Q343.48 -36.39 342.82 -31.96 L363.36 -31.96 Z" fill="#16324F"/></g></svg>